<?xml version="1.0" encoding="UTF-8"?>
<svg width="160px" height="160px" viewBox="0 0 160 160" version="1.1" xmlns="http://www.w3.org/2000/svg" xmlns:xlink="http://www.w3.org/1999/xlink">
    <!-- Generator: Sketch 59.1 (86144) - https://sketch.com -->
    <title>logo</title>
    <desc>Created with Sketch.</desc>
    <g id="Page-1" stroke="none" stroke-width="1" fill="none" fill-rule="evenodd">
        <g id="logo">
            <path d="M80,0 C35.8166667,0 0,35.8166667 0,80 L0,80 C0,124.183333 35.8166667,160 80,160 L80,160 C124.183333,160 160,124.183333 160,80 L160,80 C160,35.8166667 124.183333,0 80,0 Z" id="Fill-1" fill="#4EA4F6"></path>
            <path d="M29.3742284,82.3518126 C38.683825,77.1806841 49.0758247,72.8648297 58.7855985,68.5268907 C75.490179,61.421692 92.2611239,54.4396313 109.201298,47.9394151 C112.496953,46.831842 118.419312,45.7490303 119,50.6745519 C118.682115,57.6459049 117.374072,64.5771042 116.476826,71.5083036 C114.199864,86.7506513 111.567188,101.940799 109.000877,117.133624 C108.116904,122.193661 101.830205,124.813021 97.8078595,121.574624 C88.1412226,114.990755 78.4002575,108.469792 68.8570583,101.732669 C65.7312955,98.5297417 68.6294284,93.9301344 71.4213783,91.6427115 C79.3831141,83.7304232 87.827319,77.007354 95.3729501,68.6868363 C97.4076823,63.729861 91.3944049,67.9071851 89.4101097,69.1874192 C78.511086,76.7610779 67.8775199,84.7978426 56.3858622,91.4553275 C50.515932,94.713801 43.6744271,91.9291413 37.807815,90.1108475 C32.5464463,87.9144396 24.8375588,85.7013011 29.3742284,82.3524818 L29.3742284,82.3518126 Z" id="Fill-4" fill="#FFFFFF"></path>
        </g>
    </g>
</svg>