<?xml version="1.0" standalone="no"?>
<!DOCTYPE svg PUBLIC "-//W3C//DTD SVG 20010904//EN"
 "http://www.w3.org/TR/2001/REC-SVG-20010904/DTD/svg10.dtd">
<svg version="1.0" xmlns="http://www.w3.org/2000/svg"
 width="700.000000pt" height="700.000000pt" viewBox="0 0 700.000000 700.000000"
 preserveAspectRatio="xMidYMid meet">
<metadata>
Created by potrace 1.11, written by Peter Selinger 2001-2013
</metadata>
<g transform="translate(0.000000,700.000000) scale(0.100000,-0.100000)"
fill="#000000" stroke="none">
<path d="M3205 6990 c-1488 -136 -2713 -1169 -3090 -2605 -39 -148 -77 -350
-96 -510 -18 -147 -18 -606 -1 -750 88 -717 362 -1354 814 -1890 95 -112 315
-331 428 -424 469 -390 1058 -660 1655 -760 233 -39 318 -45 595 -45 285 0
400 10 640 55 524 100 1036 327 1465 652 346 262 667 619 886 988 261 439 414
895 481 1439 19 156 16 611 -6 775 -135 1026 -672 1909 -1508 2478 -456 311
-978 507 -1548 582 -148 20 -568 28 -715 15z m2038 -2209 c75 -29 87 -101 34
-203 -18 -35 -228 -326 -467 -648 -1314 -1772 -1710 -2273 -1857 -2352 -137
-73 -211 -33 -307 167 -167 346 -892 2254 -941 2478 -32 147 -8 253 69 306
100 69 202 81 497 57 112 -9 404 -30 649 -46 245 -17 469 -35 499 -40 110 -20
169 -66 186 -147 12 -61 -17 -179 -176 -700 -175 -575 -259 -880 -259 -940 0
-33 26 -63 55 -63 50 0 73 41 564 1041 175 355 336 672 358 705 58 84 143 161
217 194 84 38 231 82 446 131 291 68 380 80 433 60z"/>
</g>
</svg>
