<?xml version="1.0" standalone="no"?>
<!DOCTYPE svg PUBLIC "-//W3C//DTD SVG 20010904//EN"
 "http://www.w3.org/TR/2001/REC-SVG-20010904/DTD/svg10.dtd">
<svg version="1.0" xmlns="http://www.w3.org/2000/svg"
 width="700.000000pt" height="700.000000pt" viewBox="0 0 700.000000 700.000000"
 preserveAspectRatio="xMidYMid meet">
<metadata>
Created by potrace 1.11, written by Peter Selinger 2001-2013
</metadata>
<g transform="translate(0.000000,700.000000) scale(0.100000,-0.100000)"
fill="#000000" stroke="none">
<path d="M3215 6989 c-748 -64 -1435 -351 -1995 -835 -551 -475 -938 -1101
-1114 -1799 -34 -137 -72 -346 -88 -490 -17 -155 -17 -575 0 -730 63 -570 255
-1100 567 -1570 270 -405 644 -771 1047 -1024 457 -287 944 -456 1503 -523
139 -16 595 -16 730 0 847 103 1555 446 2131 1034 204 208 346 389 490 623
269 439 429 910 496 1460 16 130 16 600 0 730 -73 596 -246 1079 -557 1555
-139 213 -239 336 -449 548 -657 668 -1554 1038 -2496 1031 -91 -1 -210 -6
-265 -10z m1876 -2060 c77 -23 121 -101 113 -199 -21 -246 -64 -570 -155
-1160 -85 -549 -279 -1692 -296 -1745 -21 -65 -97 -145 -166 -176 -67 -30
-194 -33 -245 -6 -55 30 -1017 686 -1272 867 -108 77 -136 143 -104 250 34
115 66 150 589 635 399 369 609 578 625 621 13 33 13 71 -1 79 -40 25 -156
-42 -548 -319 -549 -388 -734 -513 -1006 -681 -186 -115 -244 -141 -350 -156
-125 -17 -262 6 -515 85 -121 38 -362 135 -433 174 -95 51 -120 113 -71 171
51 61 779 405 1524 721 903 383 1893 782 2060 830 74 21 195 25 251 9z"/>
</g>
</svg>
